<svg width="32" height="32" viewBox="0 0 32 32" fill="none" xmlns="http://www.w3.org/2000/svg">
<g id="icon_close">
<circle id="Ellipse 537" cx="16" cy="16" r="15.5" stroke="white"/>
<g id="Group 1567">
<path id="Vector" d="M10.2584 21.7416C10.6029 22.0861 10.9474 22.0861 11.2919 21.7416L21.7416 11.2919C22.0861 10.9474 22.0861 10.6029 21.7416 10.2584C21.3971 9.91388 21.0526 9.91388 20.7081 10.2584L10.2584 20.7081C9.91388 21.0526 9.91388 21.3971 10.2584 21.7416Z" fill="white"/>
<path id="Vector_2" d="M21.7416 21.7416C22.0861 21.3971 22.0861 21.0526 21.7416 20.7081L11.2919 10.2584C10.9474 9.91388 10.6029 9.91388 10.2584 10.2584C9.91388 10.6029 9.91388 10.9474 10.2584 11.2919L20.7081 21.7416C21.0526 22.0861 21.3971 22.0861 21.7416 21.7416Z" fill="white"/>
</g>
</g>
</svg>
