<svg width="38" height="38" viewBox="0 0 38 38" fill="none" xmlns="http://www.w3.org/2000/svg">
<g id="vuesax/bold/add-square">
<g id="add-square">
<path id="Vector" d="M25.6355 3.16699H12.3671C6.6038 3.16699 3.16797 6.60283 3.16797 12.3662V25.6187C3.16797 31.3978 6.6038 34.8337 12.3671 34.8337H25.6196C31.383 34.8337 34.8188 31.3978 34.8188 25.6345V12.3662C34.8346 6.60283 31.3988 3.16699 25.6355 3.16699ZM25.3346 20.1878H20.1888V25.3337C20.1888 25.9828 19.6505 26.5212 19.0013 26.5212C18.3521 26.5212 17.8138 25.9828 17.8138 25.3337V20.1878H12.668C12.0188 20.1878 11.4805 19.6495 11.4805 19.0003C11.4805 18.3512 12.0188 17.8128 12.668 17.8128H17.8138V12.667C17.8138 12.0178 18.3521 11.4795 19.0013 11.4795C19.6505 11.4795 20.1888 12.0178 20.1888 12.667V17.8128H25.3346C25.9838 17.8128 26.5221 18.3512 26.5221 19.0003C26.5221 19.6495 25.9838 20.1878 25.3346 20.1878Z" fill="#0267FF"/>
</g>
</g>
</svg>
