<svg width="38" height="38" viewBox="0 0 38 38" fill="none" xmlns="http://www.w3.org/2000/svg">
<g id="vuesax/bold/calendar-add">
<g id="calendar-add">
<path id="Vector" d="M26.5218 5.63699V3.16699C26.5218 2.51783 25.9835 1.97949 25.3343 1.97949C24.6852 1.97949 24.1468 2.51783 24.1468 3.16699V5.54199H13.8552V3.16699C13.8552 2.51783 13.3168 1.97949 12.6677 1.97949C12.0185 1.97949 11.4802 2.51783 11.4802 3.16699V5.63699C7.20518 6.03283 5.13101 8.58199 4.81435 12.3662C4.78268 12.8253 5.16268 13.2053 5.60601 13.2053H32.396C32.8552 13.2053 33.2352 12.8095 33.1877 12.3662C32.871 8.58199 30.7968 6.03283 26.5218 5.63699Z" fill="#0267FF"/>
<path id="Vector_2" d="M31.6667 15.5801H6.33333C5.4625 15.5801 4.75 16.2926 4.75 17.1634V26.9167C4.75 31.6667 7.125 34.8334 12.6667 34.8334H20.4725C21.565 34.8334 22.325 33.7726 21.9767 32.7434C21.66 31.8251 21.3908 30.8117 21.3908 30.0834C21.3908 25.2859 25.3017 21.3751 30.0992 21.3751C30.5583 21.3751 31.0175 21.4067 31.4608 21.4859C32.4108 21.6284 33.2658 20.8842 33.2658 19.9342V17.1792C33.25 16.2926 32.5375 15.5801 31.6667 15.5801ZM14.5825 28.0409C14.4242 28.1834 14.25 28.2942 14.06 28.3734C13.87 28.4526 13.6642 28.5001 13.4583 28.5001C13.2525 28.5001 13.0467 28.4526 12.8567 28.3734C12.6667 28.2942 12.4925 28.1834 12.3342 28.0409C12.0492 27.7401 11.875 27.3284 11.875 26.9167C11.875 26.8217 11.8908 26.7109 11.9067 26.6159C11.9225 26.5051 11.9542 26.4101 12.0017 26.3151C12.0333 26.2201 12.0808 26.1251 12.1442 26.0301C12.1917 25.9509 12.2708 25.8717 12.3342 25.7926C12.4925 25.6501 12.6667 25.5392 12.8567 25.4601C13.2367 25.3017 13.68 25.3017 14.06 25.4601C14.25 25.5392 14.4242 25.6501 14.5825 25.7926C14.6458 25.8717 14.725 25.9509 14.7725 26.0301C14.8358 26.1251 14.8833 26.2201 14.915 26.3151C14.9625 26.4101 14.9942 26.5051 15.01 26.6159C15.0258 26.7109 15.0417 26.8217 15.0417 26.9167C15.0417 27.3284 14.8675 27.7401 14.5825 28.0409ZM14.5825 22.4992C14.4242 22.6417 14.25 22.7526 14.06 22.8317C13.87 22.9109 13.6642 22.9584 13.4583 22.9584C13.2525 22.9584 13.0467 22.9109 12.8567 22.8317C12.6508 22.7526 12.4925 22.6417 12.3342 22.4992C12.0492 22.1984 11.875 21.7867 11.875 21.3751C11.875 20.9634 12.0492 20.5517 12.3342 20.2509C12.4925 20.1084 12.6667 19.9976 12.8567 19.9184C13.2367 19.7601 13.68 19.7601 14.06 19.9184C14.25 19.9976 14.4242 20.1084 14.5825 20.2509C14.6458 20.3301 14.725 20.4092 14.7725 20.4884C14.8358 20.5834 14.8833 20.6784 14.915 20.7734C14.9625 20.8684 14.9942 20.9634 15.01 21.0584C15.0258 21.1692 15.0417 21.2801 15.0417 21.3751C15.0417 21.7867 14.8675 22.1984 14.5825 22.4992ZM20.1242 22.4992C19.8233 22.7842 19.4275 22.9584 19 22.9584C18.7942 22.9584 18.5883 22.9109 18.3983 22.8317C18.1925 22.7526 18.0342 22.6417 17.8758 22.4992C17.5908 22.1984 17.4167 21.7867 17.4167 21.3751C17.4167 21.2801 17.4325 21.1692 17.4483 21.0584C17.4642 20.9634 17.4958 20.8684 17.5433 20.7734C17.575 20.6784 17.6225 20.5834 17.6858 20.4884C17.7492 20.4092 17.8125 20.3301 17.8758 20.2509C18.4617 19.6651 19.5225 19.6651 20.1242 20.2509C20.1875 20.3301 20.2508 20.4092 20.3142 20.4884C20.3775 20.5834 20.425 20.6784 20.4567 20.7734C20.5042 20.8684 20.5358 20.9634 20.5517 21.0584C20.5675 21.1692 20.5833 21.2801 20.5833 21.3751C20.5833 21.7867 20.4092 22.1984 20.1242 22.4992Z" fill="#0267FF"/>
<path id="Vector_3" d="M34.5642 25.6025C32.0942 23.1325 28.0725 23.1325 25.6025 25.6025C23.1325 28.0725 23.1325 32.0942 25.6025 34.5642C28.0725 37.0342 32.0942 37.0342 34.5642 34.5642C37.0342 32.0942 37.0342 28.0725 34.5642 25.6025ZM33.3608 30.97C33.155 31.1917 32.8542 31.3183 32.5217 31.3183H31.35V32.5533C31.35 32.8858 31.2233 33.1708 31.0017 33.3925C30.78 33.6142 30.495 33.7408 30.1625 33.7408C29.5133 33.7408 28.975 33.2025 28.975 32.5533V31.3183H27.7875C27.1383 31.3183 26.6 30.7958 26.6 30.1308C26.6 29.4817 27.1383 28.9433 27.7875 28.9433H28.975V27.8192C28.975 27.17 29.4975 26.6317 30.1625 26.6317C30.8117 26.6317 31.35 27.17 31.35 27.8192V28.9433H32.5217C33.1867 28.9433 33.7092 29.4817 33.7092 30.1308C33.7092 30.4633 33.5825 30.7642 33.3608 30.97Z" fill="#0267FF"/>
</g>
</g>
</svg>
