<svg width="38" height="38" viewBox="0 0 38 38" fill="none" xmlns="http://www.w3.org/2000/svg">
<g id="vuesax/bold/location-tick">
<path id="Vector" d="M32.6477 13.7753C31.001 6.44449 24.6044 3.16699 18.9994 3.16699C18.9994 3.16699 18.9994 3.16699 18.9835 3.16699C13.3944 3.16699 7.01353 6.44449 5.35103 13.7595C3.48269 21.9295 8.48603 28.8487 13.0144 33.2187C14.6927 34.8337 16.846 35.6412 18.9994 35.6412C21.1527 35.6412 23.306 34.8337 24.9685 33.2187C29.4969 28.8487 34.5002 21.9453 32.6477 13.7753ZM24.1927 15.0895L17.8594 21.4228C17.6219 21.6603 17.321 21.7712 17.0202 21.7712C16.7194 21.7712 16.4185 21.6603 16.181 21.4228L13.806 19.0478C13.3469 18.5887 13.3469 17.8287 13.806 17.3695C14.2652 16.9103 15.0252 16.9103 15.4844 17.3695L17.0202 18.9053L22.5144 13.4112C22.9735 12.952 23.7335 12.952 24.1927 13.4112C24.6519 13.8703 24.6519 14.6303 24.1927 15.0895Z" fill="#FF6C02"/>
</g>
</svg>
