<svg width="38" height="38" viewBox="0 0 38 38" fill="none" xmlns="http://www.w3.org/2000/svg">
<g id="vuesax/bold/send-2">
<g id="send-2">
<path id="Vector" d="M25.5564 4.68649L11.2589 9.43649C1.64807 12.6507 1.64807 17.8915 11.2589 21.0898L15.5022 22.499L16.9114 26.7423C20.1097 36.3532 25.3664 36.3532 28.5647 26.7423L33.3306 12.4607C35.4522 6.04816 31.9689 2.54899 25.5564 4.68649ZM26.0631 13.2048L20.0464 19.2532C19.8089 19.4907 19.5081 19.6015 19.2072 19.6015C18.9064 19.6015 18.6056 19.4907 18.3681 19.2532C17.9089 18.794 17.9089 18.034 18.3681 17.5748L24.3847 11.5265C24.8439 11.0673 25.6039 11.0673 26.0631 11.5265C26.5222 11.9857 26.5222 12.7457 26.0631 13.2048Z" fill="#0267FF"/>
</g>
</g>
</svg>
