<svg width="28" height="28" viewBox="0 0 28 28" fill="none" xmlns="http://www.w3.org/2000/svg">
<g id="vuesax/bold/monitor-recorder">
<g id="monitor-recorder">
<path id="Vector" d="M24.4637 12.0983V15.82C24.4637 18.5267 22.2704 20.72 19.5637 20.72H15.4104C14.7687 20.72 14.2437 21.2333 14.2437 21.8867V22.8433C14.2437 23.485 14.7687 24.01 15.4104 24.01H18.047C18.502 24.01 18.8754 24.3717 18.8754 24.8383C18.8754 25.2933 18.502 25.6667 18.047 25.6667H8.7837C8.3287 25.6667 7.95536 25.2933 7.95536 24.8383C7.95536 24.3717 8.3287 24.01 8.7837 24.01H11.4204C12.062 24.01 12.587 23.485 12.587 22.8433V21.8867C12.587 21.2333 12.062 20.72 11.4204 20.72H7.22036C4.52536 20.72 2.33203 18.5267 2.33203 15.82V8.38833C2.33203 5.69333 4.52536 3.5 7.22036 3.5H12.2487C12.8904 3.5 13.4154 4.025 13.4154 4.66667V7.175C13.4154 9.42667 14.9204 10.9317 17.1604 10.9317H23.297C23.9387 10.9317 24.4637 11.4567 24.4637 12.0983Z" fill="#FF6C02"/>
<path id="Vector_2" d="M25.6563 2.75289L24.338 3.67456V3.18456C24.338 2.07622 23.4396 1.18956 22.343 1.18956H17.3496C16.148 1.17789 15.168 2.15789 15.168 3.35956V7.18622C15.168 8.18956 15.6696 9.18122 17.163 9.18122H22.3313C23.4396 9.18122 24.3263 8.28289 24.3263 7.18622V6.68456L25.6446 7.60622C26.3096 8.06122 26.8346 7.78122 26.8346 6.98789V3.37122C26.8346 2.57789 26.3096 2.30956 25.6563 2.75289Z" fill="#FF6C02"/>
</g>
</g>
</svg>
