<?xml version="1.0" standalone="no"?><!DOCTYPE svg PUBLIC "-//W3C//DTD SVG 1.1//EN" "http://www.w3.org/Graphics/SVG/1.1/DTD/svg11.dtd"><svg t="1729046741444" class="icon" viewBox="0 0 1024 1024" version="1.1" xmlns="http://www.w3.org/2000/svg" p-id="6429" xmlns:xlink="http://www.w3.org/1999/xlink" width="200" height="200"><path d="M978.850909 473.460364c-22.621091 0-45.195636 15.080727-45.195636 37.701818 0 158.394182-90.344727 301.661091-233.425455 377.111273-97.885091 52.782545-210.850909 60.322909-323.770182 30.161454-90.298182-30.161455-165.655273-82.990545-218.298181-158.394182l128 30.161455c22.528 7.540364 45.149091-7.540364 52.642909-30.161455 7.540364-22.621091-7.493818-45.242182-30.114909-52.782545l-256-52.782546c-15.034182 0-30.114909 0-37.608728 7.540364-15.080727 7.540364-15.080727 22.621091-15.080727 37.701818l30.114909 263.912727c0 22.667636 22.574545 37.701818 37.655273 37.701819h7.540363c7.493818 0 22.574545-7.493818 30.11491-15.034182 7.493818-7.540364 7.493818-22.621091 7.493818-30.161455l-15.034182-128.232727c60.229818 82.990545 150.574545 143.313455 248.459636 173.474909 52.736 15.080727 105.425455 22.621091 150.574546 22.621091 82.850909 0 158.161455-15.080727 233.425454-52.782545 165.655273-90.484364 271.080727-263.959273 278.574546-452.51491 7.540364-22.621091-7.493818-45.242182-30.114909-45.242181zM45.149091 548.864c22.621091 0 37.701818-15.080727 37.701818-37.701818 0-158.347636 90.298182-301.614545 233.378909-377.018182 97.885091-52.829091 218.344727-60.369455 323.770182-30.208 90.344727 30.161455 165.655273 82.944 218.344727 158.394182l-128-30.208c-15.034182 0-30.114909 0-37.655272 15.080727-15.034182 7.540364-15.034182 22.667636-15.034182 37.701818 0 15.127273 15.034182 22.667636 30.114909 30.208l256 52.782546h15.034182c7.540364 0 22.621091-7.540364 30.114909-7.540364 7.540364-7.540364 15.080727-22.621091 15.080727-37.701818l-30.114909-263.959273c0-22.621091-22.574545-37.701818-45.149091-37.701818-30.161455 7.540364-45.195636 30.161455-45.195636 52.782545l15.034181 128.186182C858.344727 119.016727 768 58.693818 670.114909 28.532364c-135.540364-45.242182-271.034182-37.701818-391.540364 30.161454C105.425455 141.637818 0 315.112727 0 503.621818c0 30.114909 22.574545 45.195636 45.149091 45.195637z" fill="#dbdbdb" p-id="6430"></path></svg>
