<svg width="16" height="16" viewBox="0 0 16 16" fill="none" xmlns="http://www.w3.org/2000/svg">
<g id="vuesax/linear/key">
<g id="vuesax/linear/key_2">
<g id="key">
<path id="Vector (Stroke)" fill-rule="evenodd" clip-rule="evenodd" d="M12.8341 3.16704C11.0556 1.39451 8.17839 1.39537 6.40732 3.16644L6.40646 3.1673C5.17126 4.3965 4.79681 6.1676 5.27832 7.73251C5.33279 7.90953 5.28494 8.10215 5.15398 8.23311L2.02399 11.3631C1.98021 11.4092 1.92088 11.5043 1.87811 11.6327C1.83459 11.7632 1.82637 11.8735 1.8352 11.9341L1.83578 11.9381L2.03516 13.387C2.05389 13.5043 2.12404 13.643 2.2423 13.7618C2.36146 13.8815 2.49697 13.9485 2.6086 13.9642L4.06592 14.1648C4.13211 14.1744 4.24483 14.1666 4.37129 14.1256C4.49862 14.0843 4.58768 14.0265 4.62846 13.9845L4.63388 13.9789L7.77392 10.8456C7.90547 10.7144 8.09897 10.6669 8.27634 10.7223C9.83108 11.2086 11.6028 10.8304 12.8406 9.59899C14.6115 7.82765 14.6114 4.93829 12.8341 3.16704ZM5.70064 2.45891C7.86294 0.297079 11.3721 0.298081 13.5401 2.45874C15.7093 4.62071 15.7093 8.14442 13.5473 10.3064L13.5465 10.3073C12.1153 11.7315 10.0972 12.2201 8.2732 11.7601L5.34266 14.6844C5.15712 14.8741 4.91095 15.0019 4.67958 15.0769C4.44675 15.1523 4.17707 15.1911 3.92394 15.1547C3.92316 15.1545 3.92239 15.1544 3.92161 15.1543L2.47227 14.9549C2.10401 14.9037 1.77585 14.7107 1.53357 14.4673C1.29116 14.2238 1.10149 13.8972 1.04617 13.5351L1.04504 13.5277L0.845664 12.0784C0.845555 12.0776 0.845447 12.0769 0.845339 12.0761C0.808086 11.8173 0.853161 11.5452 0.929422 11.3164C1.00602 11.0866 1.13226 10.846 1.30831 10.6647L1.3135 10.6593L4.24072 7.73216C3.78659 5.90504 4.267 3.8859 5.70064 2.45891Z" fill="#4E5969"/>
<path id="Vector (Stroke)_2" fill-rule="evenodd" clip-rule="evenodd" d="M4.2402 11.3066C4.43546 11.1113 4.75204 11.1113 4.9473 11.3066L6.48064 12.8399C6.6759 13.0352 6.6759 13.3518 6.48064 13.547C6.28537 13.7423 5.96879 13.7423 5.77353 13.547L4.2402 12.0137C4.04493 11.8184 4.04493 11.5019 4.2402 11.3066Z" fill="#4E5969"/>
<path id="Vector (Stroke)_3" fill-rule="evenodd" clip-rule="evenodd" d="M9.66797 5.83398C9.39183 5.83398 9.16797 6.05784 9.16797 6.33398C9.16797 6.61013 9.39183 6.83398 9.66797 6.83398C9.94411 6.83398 10.168 6.61013 10.168 6.33398C10.168 6.05784 9.94411 5.83398 9.66797 5.83398ZM8.16797 6.33398C8.16797 5.50556 8.83954 4.83398 9.66797 4.83398C10.4964 4.83398 11.168 5.50556 11.168 6.33398C11.168 7.16241 10.4964 7.83398 9.66797 7.83398C8.83954 7.83398 8.16797 7.16241 8.16797 6.33398Z" fill="#4E5969"/>
</g>
</g>
</g>
</svg>
