<svg width="48" height="48" viewBox="0 0 48 48" fill="none" xmlns="http://www.w3.org/2000/svg">
<g id="vuesax/bold/video-play">
<g id="video-play">
<path id="Vector" d="M29.4591 4H18.5391V12.72H29.4591V4Z" fill="#00D097"/>
<path id="Vector_2" d="M32.4609 4V12.72H43.7409C42.7209 7.22 38.6609 4.02 32.4609 4Z" fill="#00D097"/>
<path id="Vector_3" d="M4 15.7197V32.3797C4 39.6597 8.34 43.9997 15.62 43.9997H32.38C39.66 43.9997 44 39.6597 44 32.3797V15.7197H4ZM28.88 32.3597L24.72 34.7597C23.84 35.2597 22.98 35.5197 22.18 35.5197C21.58 35.5197 21.04 35.3797 20.54 35.0997C19.38 34.4397 18.74 33.0797 18.74 31.3197V26.5197C18.74 24.7597 19.38 23.3997 20.54 22.7397C21.7 22.0597 23.18 22.1797 24.72 23.0797L28.88 25.4797C30.42 26.3597 31.26 27.5997 31.26 28.9397C31.26 30.2797 30.4 31.4597 28.88 32.3597Z" fill="#00D097"/>
<path id="Vector_4" d="M15.5417 4C9.34172 4.02 5.28172 7.22 4.26172 12.72H15.5417V4Z" fill="#00D097"/>
</g>
</g>
</svg>
