<svg width="48" height="48" viewBox="0 0 48 48" fill="none" xmlns="http://www.w3.org/2000/svg">
<g id="vuesax/bold/device-message">
<g id="device-message">
<path id="Vector" d="M37.5 27.8H33.5038C33.3057 27.8 33.1121 27.8588 32.9476 27.969L28.18 31.16C27.46 31.64 26.62 31.86 25.8 31.86C25.1 31.86 24.4 31.7 23.76 31.34C22.5791 30.7158 21.7824 29.4513 21.562 28.1226C21.4895 27.686 21.2071 27.2985 20.7935 27.141C19.5995 26.6863 18.5314 26.0114 17.66 25.14C15.94 23.42 15 21 15 18.3V10.5V9C15 8.44772 14.5523 8 14 8H13C7.6 8 4 10.7 4 17V27.8C4 34.1 7.6 36.8 13 36.8H20.5V42.5H14.8C13.98 42.5 13.3 43.18 13.3 44C13.3 44.82 13.98 45.5 14.8 45.5H29.2C30.02 45.5 30.7 44.82 30.7 44C30.7 43.18 30.02 42.5 29.2 42.5H23.5V36.8H31C36.1048 36.8 39.601 34.3872 39.968 28.8012C40.0042 28.2501 39.5523 27.8 39 27.8H37.5Z" fill="#4890FD"/>
<path id="Vector_2" d="M37.5 4H24.5C21.52 4 19.28 5.52 18.4 8C18.14 8.76 18 9.6 18 10.5V18.3C18 20.24 18.64 21.88 19.78 23.02C20.92 24.16 22.56 24.8 24.5 24.8V27.58C24.5 28.6 25.66 29.22 26.52 28.66L32.3 24.8H37.5C38.4 24.8 39.24 24.66 40 24.4C42.48 23.52 44 21.28 44 18.3V10.5C44 6.6 41.4 4 37.5 4ZM25.24 16C24.4 16 23.74 15.32 23.74 14.5C23.74 13.68 24.4 13 25.24 13C26.08 13 26.74 13.68 26.74 14.5C26.74 15.32 26.08 16 25.24 16ZM30.88 16C30.04 16 29.38 15.32 29.38 14.5C29.38 13.68 30.06 13 30.88 13C31.7 13 32.38 13.68 32.38 14.5C32.38 15.32 31.7 16 30.88 16ZM36.5 16C35.66 16 35 15.32 35 14.5C35 13.68 35.68 13 36.5 13C37.32 13 38 13.68 38 14.5C38 15.32 37.32 16 36.5 16Z" fill="#4890FD"/>
<path id="Vector_3" d="M44 10.5V18.3C44 21.28 42.48 23.52 40 24.4C39.24 24.66 38.4 24.8 37.5 24.8H32.3L26.52 28.66C25.66 29.22 24.5 28.6 24.5 27.58V24.8C22.56 24.8 20.92 24.16 19.78 23.02C18.64 21.88 18 20.24 18 18.3V10.5C18 9.6 18.14 8.76 18.4 8C19.28 5.52 21.52 4 24.5 4H37.5C41.4 4 44 6.6 44 10.5Z" fill="#4890FD"/>
</g>
</g>
</svg>
