<svg width="48" height="48" viewBox="0 0 48 48" fill="none" xmlns="http://www.w3.org/2000/svg">
<g id="vuesax/bold/video">
<g id="video">
<path id="Vector" d="M42.3 12.34C41.48 11.9 39.76 11.44 37.42 13.08L34.48 15.16C34.26 8.94 31.56 6.5 25 6.5H13C6.16 6.5 3.5 9.16 3.5 16V32C3.5 36.6 6 41.5 13 41.5H25C31.56 41.5 34.26 39.06 34.48 32.84L37.42 34.92C38.66 35.8 39.74 36.08 40.6 36.08C41.34 36.08 41.92 35.86 42.3 35.66C43.12 35.24 44.5 34.1 44.5 31.24V16.76C44.5 13.9 43.12 12.76 42.3 12.34ZM22 22.76C19.94 22.76 18.24 21.08 18.24 19C18.24 16.92 19.94 15.24 22 15.24C24.06 15.24 25.76 16.92 25.76 19C25.76 21.08 24.06 22.76 22 22.76Z" fill="#6D5DD3"/>
</g>
</g>
</svg>
