<svg width="48" height="48" viewBox="0 0 48 48" fill="none" xmlns="http://www.w3.org/2000/svg">
<g id="vuesax/bold/card-edit">
<g id="card-edit">
<path id="Vector" d="M27 9.2198V15.0798C27 16.4198 25.92 17.4998 24.58 17.4998H6.42C5.06 17.4998 4 16.3798 4 15.0398C4.02 12.7798 4.92 10.7198 6.42 9.2198C7.92 7.7198 10 6.7998 12.28 6.7998H24.58C25.92 6.7998 27 7.8798 27 9.2198Z" fill="#FF7474"/>
<rect id="Rectangle 7327" x="9" y="30" width="24" height="7" fill="white"/>
<path id="Vector_2" d="M4 22.92V32.92C4 37.5 7.7 41.2 12.28 41.2H35.7C40.28 41.2 44 37.48 44 32.9V22.92C44 21.58 42.92 20.5 41.58 20.5H6.42C5.08 20.5 4 21.58 4 22.92ZM16 34.5H12C11.18 34.5 10.5 33.82 10.5 33C10.5 32.18 11.18 31.5 12 31.5H16C16.82 31.5 17.5 32.18 17.5 33C17.5 33.82 16.82 34.5 16 34.5ZM29 34.5H21C20.18 34.5 19.5 33.82 19.5 33C19.5 32.18 20.18 31.5 21 31.5H29C29.82 31.5 30.5 32.18 30.5 33C30.5 33.82 29.82 34.5 29 34.5Z" fill="#FF7474"/>
<rect id="Rectangle 7328" x="32" y="5" width="10" height="11" fill="#FFF7E3"/>
<path id="Vector_3" d="M39.94 3.5H34.06C31.52 3.5 30 5.02 30 7.56V13.44C30 15.98 31.52 17.5 34.06 17.5H39.94C42.48 17.5 44 15.98 44 13.44V7.56C44 5.02 42.48 3.5 39.94 3.5ZM36.02 14.64C35.96 14.7 35.82 14.78 35.72 14.78L33.64 15.08C33.58 15.1 33.5 15.1 33.44 15.1C33.14 15.1 32.88 15 32.7 14.8C32.46 14.56 32.36 14.22 32.42 13.86L32.72 11.78C32.74 11.68 32.8 11.54 32.86 11.48L36.26 8.08C36.32 8.22 36.38 8.38 36.44 8.54C36.52 8.7 36.6 8.84 36.68 8.98C36.74 9.1 36.82 9.22 36.9 9.3C36.98 9.42 37.06 9.54 37.12 9.6C37.16 9.66 37.18 9.68 37.2 9.7C37.38 9.92 37.58 10.12 37.76 10.26C37.8 10.3 37.84 10.34 37.86 10.34C37.96 10.42 38.08 10.52 38.16 10.58C38.28 10.66 38.38 10.74 38.5 10.8C38.64 10.88 38.8 10.96 38.96 11.04C39.12 11.12 39.28 11.18 39.42 11.22L36.02 14.64ZM40.8 9.86L40.14 10.52C40.12 10.56 40.06 10.58 40 10.58C39.98 10.58 39.96 10.58 39.94 10.58C38.5 10.16 37.36 9.02 36.94 7.58C36.92 7.5 36.94 7.42 37 7.36L37.66 6.7C38.74 5.62 39.76 5.64 40.82 6.7C41.36 7.24 41.62 7.76 41.62 8.28C41.6 8.8 41.34 9.32 40.8 9.86Z" fill="#FF7474"/>
</g>
</g>
</svg>
