<svg width="48" height="48" viewBox="0 0 48 48" fill="none" xmlns="http://www.w3.org/2000/svg">
<g id="vuesax/bold/gallery">
<g id="gallery">
<path id="Vector" d="M5.16156 38.0196L5.12156 38.0596C4.58156 36.8796 4.24156 35.5396 4.10156 34.0596C4.24156 35.5196 4.62156 36.8396 5.16156 38.0196Z" fill="#15C0E6"/>
<path id="Vector_2" d="M17.9983 20.7602C20.6272 20.7602 22.7583 18.6291 22.7583 16.0002C22.7583 13.3714 20.6272 11.2402 17.9983 11.2402C15.3694 11.2402 13.2383 13.3714 13.2383 16.0002C13.2383 18.6291 15.3694 20.7602 17.9983 20.7602Z" fill="#15C0E6"/>
<path id="Vector_3" d="M32.38 4H15.62C8.34 4 4 8.34 4 15.62V32.38C4 34.56 4.38 36.46 5.12 38.06C6.84 41.86 10.52 44 15.62 44H32.38C39.66 44 44 39.66 44 32.38V27.8V15.62C44 8.34 39.66 4 32.38 4ZM40.74 25C39.18 23.66 36.66 23.66 35.1 25L26.78 32.14C25.22 33.48 22.7 33.48 21.14 32.14L20.46 31.58C19.04 30.34 16.78 30.22 15.18 31.3L7.7 36.32C7.26 35.2 7 33.9 7 32.38V15.62C7 9.98 9.98 7 15.62 7H32.38C38.02 7 41 9.98 41 15.62V25.22L40.74 25Z" fill="#15C0E6"/>
</g>
</g>
</svg>
