<svg width="48" height="48" viewBox="0 0 48 48" fill="none" xmlns="http://www.w3.org/2000/svg">
<g id="vuesax/bold/folder-2">
<g id="folder-2">
<path id="Vector" d="M38.9231 8.15525C39.1638 8.54354 38.743 8.99033 38.2988 8.88322C38.2658 8.87525 38.2327 8.86751 38.1997 8.86C37.2597 8.58 36.2197 8.44 35.1597 8.44H28.3094C28.1522 8.44 28.0041 8.36605 27.9097 8.24037L25.4597 4.98C25.4306 4.93877 25.4012 4.89784 25.3715 4.85717C25.1182 4.51019 25.352 4 25.7816 4H31.4397C34.5982 4 37.3761 5.65964 38.9231 8.15525Z" fill="#FDC748"/>
<path id="Vector_2" d="M40.28 13.08C39.42 12.46 38.44 12 37.38 11.74C36.66 11.54 35.92 11.44 35.16 11.44H27.72C26.56 11.44 26.48 11.34 25.86 10.52L23.06 6.8C21.76 5.06 20.74 4 17.48 4H12.84C7.96 4 4 7.96 4 12.84V35.16C4 40.04 7.96 44 12.84 44H35.16C40.04 44 44 40.04 44 35.16V20.28C44 17.3 42.54 14.68 40.28 13.08ZM28.78 32.68H19.2C18.42 32.68 17.82 32.06 17.82 31.28C17.82 30.52 18.42 29.88 19.2 29.88H28.78C29.56 29.88 30.18 30.52 30.18 31.28C30.18 32.06 29.56 32.68 28.78 32.68Z" fill="#FDC748"/>
</g>
</g>
</svg>
