<svg width="16" height="16" viewBox="0 0 16 16" fill="none" xmlns="http://www.w3.org/2000/svg">
<g id="vuesax/linear/messages">
<g id="messages">
<g id="Group">
<path id="Vector (Stroke)" fill-rule="evenodd" clip-rule="evenodd" d="M4.52537 4.5C4.36382 4.5 4.21952 4.50629 4.08739 4.52281C4.08093 4.52362 4.07445 4.5243 4.06797 4.52485C3.26224 4.59375 2.72782 4.85814 2.38714 5.25887C2.04099 5.66602 1.83203 6.28748 1.83203 7.19334V9.86001C1.83203 11.1503 2.09452 11.7608 2.46008 12.08C2.84243 12.4139 3.47024 12.5533 4.52537 12.5533H4.79203C4.96717 12.5533 5.13043 12.6091 5.2534 12.6712C5.37668 12.7336 5.51414 12.8299 5.61587 12.9629L5.61871 12.9666L6.41937 14.0342C6.51672 14.1646 6.60839 14.1883 6.6587 14.1883C6.70901 14.1883 6.80069 14.1646 6.89803 14.0342L6.8987 14.0333L7.69869 12.9667C7.89312 12.7074 8.20132 12.5533 8.52537 12.5533H8.79203C9.69872 12.5533 10.32 12.3456 10.7269 12.0004C11.127 11.6609 11.3916 11.1269 11.4605 10.3176C11.4611 10.311 11.4617 10.3045 11.4626 10.298C11.4791 10.1659 11.4854 10.0216 11.4854 9.86001V7.19334C11.4854 6.20747 11.2385 5.55858 10.8326 5.15272C10.4268 4.74686 9.7779 4.5 8.79203 4.5H4.52537ZM3.97321 3.52932C4.15783 3.50681 4.34349 3.5 4.52537 3.5H8.79203C9.93283 3.5 10.8806 3.78647 11.5398 4.44562C12.1989 5.10476 12.4854 6.05254 12.4854 7.19334V9.86001C12.4854 10.0419 12.4786 10.2275 12.4561 10.4121C12.3703 11.3984 12.0283 12.2076 11.3739 12.7629C10.724 13.3143 9.83868 13.5533 8.79203 13.5533H8.52537C8.52193 13.5533 8.5166 13.5542 8.51064 13.5572C8.50467 13.5602 8.50076 13.5639 8.49869 13.5667L7.69938 14.6324C7.69927 14.6326 7.69949 14.6323 7.69938 14.6324C7.4434 14.9751 7.07155 15.1883 6.6587 15.1883C6.24585 15.1883 5.87433 14.9755 5.61835 14.6329C5.61824 14.6327 5.61846 14.633 5.61835 14.6329L4.82847 13.5797C4.82276 13.5754 4.81372 13.5695 4.80233 13.5637C4.79206 13.5585 4.7833 13.5552 4.77739 13.5533H4.52537C3.45383 13.5533 2.48497 13.4294 1.80233 12.8333C1.10288 12.2225 0.832031 11.2363 0.832031 9.86001V7.19334C0.832031 6.14586 1.07307 5.26066 1.62526 4.61115C2.18112 3.95732 2.98992 3.61515 3.97321 3.52932Z" fill="white"/>
</g>
<path id="Vector (Stroke)_2" fill-rule="evenodd" clip-rule="evenodd" d="M4.6165 3.49967H8.79401C9.93481 3.49967 10.8826 3.78615 11.5417 4.44529C12.2009 5.10443 12.4873 6.05221 12.4873 7.19301V9.77081C12.9864 9.64823 13.3463 9.42663 13.5992 9.12969C13.9449 8.72367 14.154 8.10258 14.154 7.19301V4.52635C14.154 3.54048 13.9072 2.89159 13.5013 2.48573C13.0954 2.07987 12.4465 1.83301 11.4607 1.83301H7.19401C6.28816 1.83301 5.6667 2.04197 5.25954 2.38812C4.9619 2.64116 4.73947 3.00108 4.6165 3.49967ZM4.61182 1.62624C5.26133 1.07405 6.14654 0.833008 7.19401 0.833008H11.4607C12.6015 0.833008 13.5493 1.11948 14.2084 1.77862C14.8675 2.43777 15.154 3.38554 15.154 4.52635V7.19301C15.154 8.24344 14.9131 9.12902 14.3605 9.778C13.8025 10.4333 12.99 10.7735 12.0033 10.8579C11.853 10.8707 11.7049 10.815 11.6003 10.7063C11.4957 10.5975 11.4458 10.4474 11.4645 10.2977C11.4811 10.1655 11.4873 10.0212 11.4873 9.85968V7.19301C11.4873 6.20715 11.2405 5.55826 10.8346 5.1524C10.4288 4.74654 9.77987 4.49967 8.79401 4.49967H4.52735C4.3658 4.49967 4.2215 4.50597 4.08936 4.52249C3.93966 4.5412 3.78951 4.49131 3.68076 4.38674C3.57202 4.28216 3.51631 4.13407 3.52916 3.98375C3.61361 2.99614 3.95588 2.18389 4.61182 1.62624Z" fill="white"/>
<path id="Vector (Stroke)_3" fill-rule="evenodd" clip-rule="evenodd" d="M8.33203 8.83366C8.33203 8.46547 8.63051 8.16699 8.9987 8.16699H9.0047C9.37289 8.16699 9.67136 8.46547 9.67136 8.83366C9.67136 9.20185 9.37289 9.50033 9.0047 9.50033H8.9987C8.63051 9.50033 8.33203 9.20185 8.33203 8.83366Z" fill="white"/>
<path id="Vector (Stroke)_4" fill-rule="evenodd" clip-rule="evenodd" d="M5.99609 8.83366C5.99609 8.46547 6.29457 8.16699 6.66276 8.16699H6.66876C7.03695 8.16699 7.33543 8.46547 7.33543 8.83366C7.33543 9.20185 7.03695 9.50033 6.66876 9.50033H6.66276C6.29457 9.50033 5.99609 9.20185 5.99609 8.83366Z" fill="white"/>
<path id="Vector (Stroke)_5" fill-rule="evenodd" clip-rule="evenodd" d="M3.66406 8.83366C3.66406 8.46547 3.96254 8.16699 4.33073 8.16699H4.33673C4.70492 8.16699 5.0034 8.46547 5.0034 8.83366C5.0034 9.20185 4.70492 9.50033 4.33673 9.50033H4.33073C3.96254 9.50033 3.66406 9.20185 3.66406 8.83366Z" fill="white"/>
</g>
</g>
</svg>
