<svg width="16" height="16" viewBox="0 0 16 16" fill="none" xmlns="http://www.w3.org/2000/svg">
<g id="vuesax/linear/call-calling">
<g id="call-calling">
<g id="call-calling_2">
<path id="Vector" d="M14.6454 12.2197C14.6454 12.4597 14.592 12.7063 14.4787 12.9463C14.3654 13.1863 14.2187 13.413 14.0254 13.6263C13.6987 13.9863 13.3387 14.2463 12.932 14.413C12.532 14.5797 12.0987 14.6663 11.632 14.6663C10.952 14.6663 10.2254 14.5063 9.4587 14.1797C8.69203 13.853 7.92536 13.413 7.16536 12.8597C6.3987 12.2997 5.67203 11.6797 4.9787 10.993C4.29203 10.2997 3.67203 9.57301 3.1187 8.81301C2.57203 8.05301 2.13203 7.29301 1.81203 6.53967C1.49203 5.77967 1.33203 5.05301 1.33203 4.35967C1.33203 3.90634 1.41203 3.47301 1.57203 3.07301C1.73203 2.66634 1.98536 2.29301 2.3387 1.95967C2.76536 1.53967 3.23203 1.33301 3.72536 1.33301C3.91203 1.33301 4.0987 1.37301 4.26536 1.45301C4.4387 1.53301 4.59203 1.65301 4.71203 1.82634L6.2587 4.00634C6.3787 4.17301 6.46536 4.32634 6.52536 4.47301C6.58536 4.61301 6.6187 4.75301 6.6187 4.87967C6.6187 5.03967 6.57203 5.19967 6.4787 5.35301C6.39203 5.50634 6.26536 5.66634 6.10536 5.82634L5.5987 6.35301C5.52536 6.42634 5.49203 6.51301 5.49203 6.61967C5.49203 6.67301 5.4987 6.71967 5.51203 6.77301C5.53203 6.82634 5.55203 6.86634 5.56536 6.90634C5.68536 7.12634 5.89203 7.41301 6.18536 7.75967C6.48536 8.10634 6.80536 8.45967 7.15203 8.81301C7.51203 9.16634 7.8587 9.49301 8.21203 9.79301C8.5587 10.0863 8.84536 10.2863 9.07203 10.4063C9.10536 10.4197 9.14536 10.4397 9.19203 10.4597C9.24536 10.4797 9.2987 10.4863 9.3587 10.4863C9.47203 10.4863 9.5587 10.4463 9.63203 10.373L10.1387 9.87301C10.3054 9.70634 10.4654 9.57967 10.6187 9.49967C10.772 9.40634 10.9254 9.35967 11.092 9.35967C11.2187 9.35967 11.352 9.38634 11.4987 9.44634C11.6454 9.50634 11.7987 9.59301 11.9654 9.70634L14.172 11.273C14.3454 11.393 14.4654 11.533 14.5387 11.6997C14.6054 11.8663 14.6454 12.033 14.6454 12.2197Z" stroke="white" stroke-width="1.2" stroke-miterlimit="10"/>
<path id="Vector_2" d="M12.3333 5.99935C12.3333 5.59935 12.02 4.98602 11.5533 4.48602C11.1267 4.02602 10.56 3.66602 10 3.66602" stroke="white" stroke-width="1.2" stroke-linecap="round" stroke-linejoin="round"/>
<path id="Vector_3" d="M14.6667 5.99967C14.6667 3.41967 12.58 1.33301 10 1.33301" stroke="white" stroke-width="1.2" stroke-linecap="round" stroke-linejoin="round"/>
</g>
</g>
</g>
</svg>
