<svg width="16" height="16" viewBox="0 0 16 16" fill="none" xmlns="http://www.w3.org/2000/svg">
<g id="vuesax/linear/calendar">
<g id="calendar">
<path id="Vector (Stroke)" fill-rule="evenodd" clip-rule="evenodd" d="M5.33203 0.833008C5.60817 0.833008 5.83203 1.05687 5.83203 1.33301V3.33301C5.83203 3.60915 5.60817 3.83301 5.33203 3.83301C5.05589 3.83301 4.83203 3.60915 4.83203 3.33301V1.33301C4.83203 1.05687 5.05589 0.833008 5.33203 0.833008Z" fill="white"/>
<path id="Vector (Stroke)_2" fill-rule="evenodd" clip-rule="evenodd" d="M10.668 0.833008C10.9441 0.833008 11.168 1.05687 11.168 1.33301V3.33301C11.168 3.60915 10.9441 3.83301 10.668 3.83301C10.3918 3.83301 10.168 3.60915 10.168 3.33301V1.33301C10.168 1.05687 10.3918 0.833008 10.668 0.833008Z" fill="white"/>
<path id="Vector (Stroke)_3" fill-rule="evenodd" clip-rule="evenodd" d="M1.83203 6.05957C1.83203 5.78343 2.05589 5.55957 2.33203 5.55957H13.6654C13.9415 5.55957 14.1654 5.78343 14.1654 6.05957C14.1654 6.33571 13.9415 6.55957 13.6654 6.55957H2.33203C2.05589 6.55957 1.83203 6.33571 1.83203 6.05957Z" fill="white"/>
<path id="Vector (Stroke)_4" fill-rule="evenodd" clip-rule="evenodd" d="M3.15806 3.5899C2.73091 4.04991 2.5 4.74299 2.5 5.66634V11.333C2.5 12.2564 2.73091 12.9494 3.15806 13.4094C3.57899 13.8628 4.26197 14.1663 5.33333 14.1663H10.6667C11.738 14.1663 12.421 13.8628 12.8419 13.4094C13.2691 12.9494 13.5 12.2564 13.5 11.333V5.66634C13.5 4.74299 13.2691 4.04991 12.8419 3.5899C12.421 3.1366 11.738 2.83301 10.6667 2.83301H5.33333C4.26197 2.83301 3.57899 3.1366 3.15806 3.5899ZM2.42527 2.90945C3.08768 2.19608 4.07137 1.83301 5.33333 1.83301H10.6667C11.9286 1.83301 12.9123 2.19608 13.5747 2.90945C14.2309 3.6161 14.5 4.58969 14.5 5.66634V11.333C14.5 12.4097 14.2309 13.3832 13.5747 14.0899C12.9123 14.8033 11.9286 15.1663 10.6667 15.1663H5.33333C4.07137 15.1663 3.08768 14.8033 2.42527 14.0899C1.76909 13.3832 1.5 12.4097 1.5 11.333V5.66634C1.5 4.58969 1.76909 3.6161 2.42527 2.90945Z" fill="white"/>
<path id="Vector (Stroke)_5" fill-rule="evenodd" clip-rule="evenodd" d="M9.79688 9.13346C9.79688 8.76527 10.0954 8.4668 10.4635 8.4668H10.4695C10.8377 8.4668 11.1362 8.76527 11.1362 9.13346C11.1362 9.50165 10.8377 9.80013 10.4695 9.80013H10.4635C10.0954 9.80013 9.79688 9.50165 9.79688 9.13346Z" fill="white"/>
<path id="Vector (Stroke)_6" fill-rule="evenodd" clip-rule="evenodd" d="M9.79688 11.1335C9.79688 10.7653 10.0954 10.4668 10.4635 10.4668H10.4695C10.8377 10.4668 11.1362 10.7653 11.1362 11.1335C11.1362 11.5017 10.8377 11.8001 10.4695 11.8001H10.4635C10.0954 11.8001 9.79688 11.5017 9.79688 11.1335Z" fill="white"/>
<path id="Vector (Stroke)_7" fill-rule="evenodd" clip-rule="evenodd" d="M7.33203 9.13346C7.33203 8.76527 7.63051 8.4668 7.9987 8.4668H8.00469C8.37288 8.4668 8.67135 8.76527 8.67135 9.13346C8.67135 9.50165 8.37288 9.80013 8.00469 9.80013H7.9987C7.63051 9.80013 7.33203 9.50165 7.33203 9.13346Z" fill="white"/>
<path id="Vector (Stroke)_8" fill-rule="evenodd" clip-rule="evenodd" d="M7.33203 11.1335C7.33203 10.7653 7.63051 10.4668 7.9987 10.4668H8.00469C8.37288 10.4668 8.67135 10.7653 8.67135 11.1335C8.67135 11.5017 8.37288 11.8001 8.00469 11.8001H7.9987C7.63051 11.8001 7.33203 11.5017 7.33203 11.1335Z" fill="white"/>
<path id="Vector (Stroke)_9" fill-rule="evenodd" clip-rule="evenodd" d="M4.86328 9.13346C4.86328 8.76527 5.16176 8.4668 5.52995 8.4668H5.53594C5.90413 8.4668 6.2026 8.76527 6.2026 9.13346C6.2026 9.50165 5.90413 9.80013 5.53594 9.80013H5.52995C5.16176 9.80013 4.86328 9.50165 4.86328 9.13346Z" fill="white"/>
<path id="Vector (Stroke)_10" fill-rule="evenodd" clip-rule="evenodd" d="M4.86328 11.1335C4.86328 10.7653 5.16176 10.4668 5.52995 10.4668H5.53594C5.90413 10.4668 6.2026 10.7653 6.2026 11.1335C6.2026 11.5017 5.90413 11.8001 5.53594 11.8001H5.52995C5.16176 11.8001 4.86328 11.5017 4.86328 11.1335Z" fill="white"/>
</g>
</g>
</svg>
