<svg width="56" height="56" viewBox="0 0 56 56" fill="none" xmlns="http://www.w3.org/2000/svg">
<g id="2">
<rect id="Rectangle 240648374" width="56" height="56" rx="8" fill="#FF3939"/>
<g id="Group 1321314780">
<path id="Vector" d="M28 10C37.9412 10 46 18.0588 46 28C46 37.9412 37.9412 46 28 46C18.0588 46 10 37.9412 10 28C10 18.0588 18.0588 10 28 10ZM28 12.6667C19.5317 12.6667 12.6667 19.5317 12.6667 28C12.6667 36.4683 19.5317 43.3333 28 43.3333C36.4683 43.3333 43.3333 36.4683 43.3333 28C43.3333 19.5317 36.4683 12.6667 28 12.6667Z" fill="white"/>
<path id="Vector_2" d="M36.6002 19.2761C37.2287 19.9046 37.2287 20.5332 36.6002 21.1617L21.1617 36.6002C20.5332 37.2287 19.9046 37.2287 19.2761 36.6002C18.6476 35.9717 18.6476 35.3431 19.2761 34.7146L34.7146 19.2761C35.3431 18.6476 35.9717 18.6476 36.6002 19.2761Z" fill="white"/>
<path id="Vector_3" d="M19.2761 19.2761C19.9046 18.6476 20.5332 18.6476 21.1617 19.2761L36.6002 34.7146C37.2287 35.3431 37.2287 35.9717 36.6002 36.6002C35.9717 37.2287 35.3431 37.2287 34.7146 36.6002L19.2761 21.1617C18.6476 20.5332 18.6476 19.9046 19.2761 19.2761Z" fill="white"/>
</g>
</g>
</svg>
