<svg width="14" height="14" viewBox="0 0 14 14" fill="none" xmlns="http://www.w3.org/2000/svg">
<g id="vuesax/linear/gallery-import">
<g id="gallery-import">
<path id="Vector (Stroke)" fill-rule="evenodd" clip-rule="evenodd" d="M5.2487 3.9375C4.84599 3.9375 4.51953 4.26396 4.51953 4.66667C4.51953 5.06937 4.84599 5.39583 5.2487 5.39583C5.65141 5.39583 5.97786 5.06937 5.97786 4.66667C5.97786 4.26396 5.65141 3.9375 5.2487 3.9375ZM3.64453 4.66667C3.64453 3.78071 4.36274 3.0625 5.2487 3.0625C6.13465 3.0625 6.85286 3.78071 6.85286 4.66667C6.85286 5.55262 6.13465 6.27083 5.2487 6.27083C4.36274 6.27083 3.64453 5.55262 3.64453 4.66667Z" fill="#0267FF"/>
<path id="Vector (Stroke)_2" fill-rule="evenodd" clip-rule="evenodd" d="M1.80653 1.80555C2.58497 1.02711 3.74982 0.729492 5.2513 0.729492H7.58464C7.82626 0.729492 8.02214 0.925368 8.02214 1.16699C8.02214 1.40862 7.82626 1.60449 7.58464 1.60449H5.2513C3.83612 1.60449 2.9593 1.89021 2.42524 2.42427C1.89118 2.95833 1.60547 3.83514 1.60547 5.25033V8.75033C1.60547 10.1655 1.89118 11.0423 2.42524 11.5764C2.9593 12.1104 3.83612 12.3962 5.2513 12.3962H8.7513C10.1665 12.3962 11.0433 12.1104 11.5774 11.5764C12.1114 11.0423 12.3971 10.1655 12.3971 8.75033V5.83366C12.3971 5.59203 12.593 5.39616 12.8346 5.39616C13.0763 5.39616 13.2721 5.59203 13.2721 5.83366V8.75033C13.2721 10.2518 12.9745 11.4167 12.1961 12.1951C11.4176 12.9735 10.2528 13.2712 8.7513 13.2712H5.2513C3.74982 13.2712 2.58497 12.9735 1.80653 12.1951C1.02809 11.4167 0.730469 10.2518 0.730469 8.75033V5.25033C0.730469 3.74884 1.02809 2.58399 1.80653 1.80555Z" fill="#0267FF"/>
<path id="Vector (Stroke)_3" fill-rule="evenodd" clip-rule="evenodd" d="M10.5 0.729492C10.7416 0.729492 10.9375 0.925368 10.9375 1.16699V3.61077L11.3573 3.19097C11.5282 3.02011 11.8052 3.02011 11.976 3.19097C12.1469 3.36182 12.1469 3.63883 11.976 3.80968L10.8094 4.97635C10.6842 5.10148 10.4961 5.13891 10.3326 5.07119C10.1691 5.00347 10.0625 4.84394 10.0625 4.66699V1.16699C10.0625 0.925368 10.2584 0.729492 10.5 0.729492Z" fill="#0267FF"/>
<path id="Vector (Stroke)_4" fill-rule="evenodd" clip-rule="evenodd" d="M9.02267 3.19064C9.19353 3.01979 9.47054 3.01979 9.64139 3.19064L10.8081 4.35731C10.9789 4.52816 10.9789 4.80517 10.8081 4.97603C10.6372 5.14688 10.3602 5.14688 10.1893 4.97603L9.02267 3.80936C8.85182 3.6385 8.85182 3.3615 9.02267 3.19064Z" fill="#0267FF"/>
<path id="Vector (Stroke)_5" fill-rule="evenodd" clip-rule="evenodd" d="M11.5986 7.62396C11.3075 7.37396 10.8148 7.37396 10.5237 7.62396L8.09704 9.70646C8.09699 9.7065 8.0971 9.70641 8.09704 9.70646C7.47808 10.238 6.50081 10.2381 5.8819 9.70646L5.87815 9.70324L5.68773 9.53586C5.42614 9.3126 4.97912 9.28519 4.67821 9.48706L1.80251 11.4178C1.6019 11.5525 1.3301 11.4991 1.19541 11.2985C1.06073 11.0978 1.11416 10.826 1.31477 10.6914L4.1906 8.76052C4.81074 8.34448 5.6926 8.38645 6.25958 8.87357L6.26329 8.87676L6.45368 9.04411C6.74493 9.29271 7.2364 9.29224 7.5269 9.04271L9.95357 6.96021C9.95352 6.96025 9.95362 6.96016 9.95357 6.96021C10.5725 6.42868 11.5498 6.42858 12.1687 6.9602C12.1687 6.96019 12.1687 6.9602 12.1687 6.9602L13.1195 7.77686C13.3028 7.93429 13.3238 8.21051 13.1664 8.39381C13.0089 8.5771 12.7327 8.59807 12.5494 8.44064L11.5986 7.62396Z" fill="#0267FF"/>
</g>
</g>
</svg>
