<svg width="56" height="44" viewBox="0 0 56 44" fill="none" xmlns="http://www.w3.org/2000/svg">
<rect width="56" height="44" rx="4" fill="#165DFF"/>
<path fill-rule="evenodd" clip-rule="evenodd" d="M37.334 23.2726C37.0581 23.7783 36.6425 24.1939 36.1368 24.4698L25.4374 30.3059C23.9828 31.0992 22.1605 30.5633 21.3671 29.1087C20.9799 28.3988 20.8957 27.5627 21.1335 26.7899L22.6578 21.8361L21.1335 16.8823C20.6462 15.2987 21.5349 13.62 23.1185 13.1327C23.8913 12.8949 24.7275 12.9791 25.4374 13.3663L36.1368 19.2024C37.5914 19.9958 38.1274 21.8181 37.334 23.2726ZM35.5782 22.3149C35.8238 21.8647 35.6872 21.3088 35.2783 21.0199L35.1791 20.9582L24.4796 15.1221C24.243 14.993 23.9643 14.965 23.7067 15.0442C23.2165 15.1951 22.9261 15.6883 23.0172 16.1807L23.045 16.2941L24.494 21.0031H29.75C30.3023 21.0031 30.75 21.4508 30.75 22.0031C30.75 22.516 30.364 22.9386 29.8666 22.9964L29.75 23.0031H24.3912L23.045 27.3781C22.9658 27.6357 22.9938 27.9144 23.1229 28.151C23.3685 28.6012 23.9098 28.7874 24.374 28.6L24.4796 28.5501L35.1791 22.714C35.3477 22.622 35.4862 22.4835 35.5782 22.3149Z" fill="white"/>
</svg>
