<svg widht="56" height="56" viewBox="0 0 56 56" fill="none" xmlns="http://www.w3.org/2000/svg">
<g id="Group 1321314764">
<circle id="Ellipse 944" cx="28" cy="28" r="28" fill="#FF1500"/>
<path id="Vector" d="M25.6068 34C25.7095 34.5614 26.0054 35.069 26.4429 35.4345C26.8805 35.7999 27.4321 36 28.0017 36C28.5713 36 29.1228 35.7999 29.5604 35.4345C29.998 35.069 30.2938 34.5614 30.3965 34L31.9931 12C31.9909 10.9398 31.5697 9.92369 30.8216 9.17403C30.0735 8.42437 29.0596 8.00222 28.0017 8C27.4472 8.0137 26.9013 8.13992 26.3969 8.37102C25.8925 8.60213 25.4401 8.93332 25.067 9.34458C24.6939 9.75585 24.4079 10.2386 24.2263 10.7638C24.0446 11.289 23.9711 11.8456 24.0102 12.4L25.6068 34ZM28.0017 40C27.2122 40 26.4405 40.2346 25.7841 40.6741C25.1277 41.1136 24.6161 41.7384 24.314 42.4693C24.0119 43.2002 23.9329 44.0044 24.0869 44.7804C24.2409 45.5563 24.6211 46.269 25.1793 46.8284C25.7375 47.3878 26.4487 47.7688 27.223 47.9231C27.9972 48.0775 28.7998 47.9983 29.5291 47.6955C30.2585 47.3928 30.8819 46.8801 31.3205 46.2223C31.759 45.5645 31.9931 44.7911 31.9931 44C32.0253 43.4663 31.9441 42.9318 31.7549 42.4319C31.5657 41.932 31.2728 41.478 30.8955 41.0999C30.5183 40.7219 30.0652 40.4283 29.5664 40.2387C29.0675 40.0491 28.5342 39.9677 28.0017 40Z" fill="white"/>
</g>
</svg>
