<svg width="16" height="16" viewBox="0 0 16 16" fill="none" xmlns="http://www.w3.org/2000/svg">
<g id="Frame">
<g id="Group 427318998">
<path id="Vector" d="M5.56954 2.16667C5.74999 2.16674 5.92302 2.23846 6.05061 2.36605C6.17821 2.49365 6.24992 2.66668 6.25 2.84712V5.56925C6.25 5.74975 6.17832 5.92285 6.05072 6.05051C5.92311 6.17817 5.75004 6.24992 5.56954 6.25H2.84742C2.66692 6.25 2.49381 6.17832 2.36616 6.05072C2.2385 5.92311 2.16674 5.75004 2.16667 5.56954V2.84742C2.16667 2.66692 2.23835 2.49381 2.36595 2.36616C2.49355 2.2385 2.66663 2.16674 2.84712 2.16667H5.56954ZM5.56954 1H2.84742C2.35764 1.00046 1.88806 1.19521 1.54171 1.5415C1.19536 1.8878 1.00054 2.35735 1 2.84712V5.56925C1.00046 6.05902 1.19521 6.52861 1.5415 6.87496C1.8878 7.22131 2.35735 7.41613 2.84712 7.41667H5.56925C6.05902 7.4162 6.52861 7.22146 6.87496 6.87516C7.22131 6.52887 7.41613 6.05931 7.41667 5.56954V2.84742C7.4162 2.35764 7.22146 1.88806 6.87516 1.54171C6.52887 1.19536 6.05931 1.00054 5.56954 1ZM13.1529 2.16667C13.3333 2.16674 13.5064 2.23846 13.6339 2.36605C13.7615 2.49365 13.8333 2.66668 13.8333 2.84712V5.56925C13.8333 5.74975 13.7617 5.92285 13.634 6.05051C13.5064 6.17817 13.3334 6.24992 13.1529 6.25H10.4307C10.2503 6.25 10.0771 6.17832 9.94949 6.05072C9.82183 5.92311 9.75008 5.75004 9.75 5.56954V2.84742C9.75 2.66692 9.82168 2.49381 9.94928 2.36616C10.0769 2.2385 10.25 2.16674 10.4305 2.16667H13.1529ZM13.1529 1H10.4307C9.94098 1.00046 9.47139 1.19521 9.12504 1.5415C8.77869 1.8878 8.58387 2.35735 8.58333 2.84712V5.56925C8.5838 6.05902 8.77854 6.52861 9.12484 6.87496C9.47113 7.22131 9.94069 7.41613 10.4305 7.41667H13.1526C13.6424 7.4162 14.1119 7.22146 14.4583 6.87516C14.8046 6.52887 14.9995 6.05931 15 5.56954V2.84742C14.9995 2.35764 14.8048 1.88806 14.4585 1.54171C14.1122 1.19536 13.6426 1.00054 13.1529 1ZM5.56954 9.75C5.74999 9.75008 5.92302 9.82179 6.05061 9.94939C6.17821 10.077 6.24992 10.25 6.25 10.4305V13.1526C6.25 13.3331 6.17832 13.5062 6.05072 13.6338C5.92311 13.7615 5.75004 13.8333 5.56954 13.8333H2.84742C2.66692 13.8333 2.49381 13.7617 2.36616 13.634C2.2385 13.5064 2.16674 13.3334 2.16667 13.1529V10.4307C2.16667 10.2503 2.23835 10.0771 2.36595 9.94949C2.49355 9.82183 2.66663 9.75008 2.84712 9.75H5.56954ZM5.56954 8.58333H2.84742C2.35764 8.5838 1.88806 8.77854 1.54171 9.12484C1.19536 9.47113 1.00054 9.94069 1 10.4305V13.1526C1.00046 13.6424 1.19521 14.1119 1.5415 14.4583C1.8878 14.8046 2.35735 14.9995 2.84712 15H5.56925C6.05902 14.9995 6.52861 14.8048 6.87496 14.4585C7.22131 14.1122 7.41613 13.6426 7.41667 13.1529V10.4307C7.4162 9.94098 7.22146 9.47139 6.87516 9.12504C6.52887 8.77869 6.05931 8.58387 5.56954 8.58333Z" fill="#32466A"/>
<path id="Vector_2" d="M3.625 4.20833C3.625 4.36304 3.68646 4.51142 3.79585 4.62081C3.90525 4.73021 4.05362 4.79167 4.20833 4.79167C4.36304 4.79167 4.51142 4.73021 4.62081 4.62081C4.73021 4.51142 4.79167 4.36304 4.79167 4.20833C4.79167 4.05362 4.73021 3.90525 4.62081 3.79585C4.51142 3.68646 4.36304 3.625 4.20833 3.625C4.05362 3.625 3.90525 3.68646 3.79585 3.79585C3.68646 3.90525 3.625 4.05362 3.625 4.20833Z" fill="#32466A"/>
<path id="Vector_3" d="M3.625 11.7913C3.625 11.9461 3.68646 12.0944 3.79585 12.2038C3.90525 12.3132 4.05362 12.3747 4.20833 12.3747C4.36304 12.3747 4.51142 12.3132 4.62081 12.2038C4.73021 12.0944 4.79167 11.9461 4.79167 11.7913C4.79167 11.6366 4.73021 11.4883 4.62081 11.3789C4.51142 11.2695 4.36304 11.208 4.20833 11.208C4.05362 11.208 3.90525 11.2695 3.79585 11.3789C3.68646 11.4883 3.625 11.6366 3.625 11.7913Z" fill="#32466A"/>
<path id="Vector_4" d="M11.207 4.20833C11.207 4.36304 11.2685 4.51142 11.3779 4.62081C11.4873 4.73021 11.6357 4.79167 11.7904 4.79167C11.9451 4.79167 12.0934 4.73021 12.2028 4.62081C12.3122 4.51142 12.3737 4.36304 12.3737 4.20833C12.3737 4.05362 12.3122 3.90525 12.2028 3.79585C12.0934 3.68646 11.9451 3.625 11.7904 3.625C11.6357 3.625 11.4873 3.68646 11.3779 3.79585C11.2685 3.90525 11.207 4.05362 11.207 4.20833Z" fill="#32466A"/>
<path id="Vector_5" d="M13.832 14.4163C13.832 14.5711 13.8935 14.7194 14.0029 14.8288C14.1123 14.9382 14.2607 14.9997 14.4154 14.9997C14.5701 14.9997 14.7184 14.9382 14.8278 14.8288C14.9372 14.7194 14.9987 14.5711 14.9987 14.4163C14.9987 14.2616 14.9372 14.1133 14.8278 14.0039C14.7184 13.8945 14.5701 13.833 14.4154 13.833C14.2607 13.833 14.1123 13.8945 14.0029 14.0039C13.8935 14.1133 13.832 14.2616 13.832 14.4163Z" fill="#32466A"/>
<path id="Vector_6" d="M11.5 14.4163C11.5 14.5711 11.5615 14.7194 11.6709 14.8288C11.7803 14.9382 11.9286 14.9997 12.0833 14.9997C12.238 14.9997 12.3864 14.9382 12.4958 14.8288C12.6052 14.7194 12.6667 14.5711 12.6667 14.4163C12.6667 14.2616 12.6052 14.1133 12.4958 14.0039C12.3864 13.8945 12.238 13.833 12.0833 13.833C11.9286 13.833 11.7803 13.8945 11.6709 14.0039C11.5615 14.1133 11.5 14.2616 11.5 14.4163Z" fill="#32466A"/>
<path id="Vector_7" d="M14.4154 8.58301C14.2607 8.58301 14.1123 8.64447 14.0029 8.75386C13.8935 8.86326 13.832 9.01163 13.832 9.16634V11.4997H12.6654V9.16634C12.6654 9.01163 12.6039 8.86326 12.4945 8.75386C12.3851 8.64447 12.2367 8.58301 12.082 8.58301H9.16536C9.01065 8.58301 8.86228 8.64447 8.75289 8.75386C8.64349 8.86326 8.58203 9.01163 8.58203 9.16634V14.4163C8.58203 14.5711 8.64349 14.7194 8.75289 14.8288C8.86228 14.9382 9.01065 14.9997 9.16536 14.9997C9.32007 14.9997 9.46845 14.9382 9.57784 14.8288C9.68724 14.7194 9.7487 14.5711 9.7487 14.4163V9.74967H11.4987V12.083C11.4987 12.2377 11.5602 12.3861 11.6696 12.4955C11.7789 12.6049 11.9273 12.6663 12.082 12.6663H14.4154C14.5701 12.6663 14.7184 12.6049 14.8278 12.4955C14.9372 12.3861 14.9987 12.2377 14.9987 12.083V9.16634C14.9987 9.01163 14.9372 8.86326 14.8278 8.75386C14.7184 8.64447 14.5701 8.58301 14.4154 8.58301Z" fill="#32466A"/>
</g>
</g>
</svg>
