<svg width="56" height="56" viewBox="0 0 56 56" fill="none" xmlns="http://www.w3.org/2000/svg">
<g id="1">
<rect id="Rectangle 240648374" width="56" height="56" rx="8" fill="#0267FF"/>
<path id="Vector" d="M28.0652 31.0614L25.8267 33.026C26.3783 33.6446 26.324 34.5854 25.7058 35.1278L20.1093 40.0389C19.4911 40.5815 18.5432 40.52 17.9917 39.9018L13.9981 35.4238C13.4466 34.8057 13.5008 33.8647 14.1188 33.3223L19.7152 28.4111C20.3336 27.8685 21.2815 27.93 21.833 28.548L24.0715 26.5837L23.0731 25.4642C21.9703 24.2277 20.0741 24.1047 18.8376 25.1899L11.0029 32.0657C9.76669 33.1505 9.65841 35.0325 10.7611 36.269L16.7517 42.9858C17.8546 44.2223 19.7509 44.3453 20.9871 43.2603L28.822 36.3844C30.0581 35.2994 30.1666 33.4174 29.0636 32.1811L28.0652 31.0614ZM45.7838 25.3707L42.4403 17.0032C41.8246 15.4627 40.0845 14.6969 38.5534 15.2925L28.8494 19.0668C27.3182 19.6627 26.5757 21.3939 27.1912 22.9344L27.7483 24.329L30.521 23.2505C30.2133 22.4801 30.5846 21.6145 31.3504 21.3168L38.2819 18.6212C39.0474 18.3233 39.9177 18.7063 40.2252 19.4764L42.454 25.0546C42.7619 25.8249 42.3906 26.6903 41.6246 26.9879L34.6935 29.6842C33.9278 29.9819 33.0575 29.599 32.75 28.8289L29.9774 29.9073L30.5345 31.3017C31.1502 32.8425 32.8903 33.608 34.4214 33.0125L44.1255 29.2382C45.6568 28.6424 46.3989 26.9107 45.7838 25.3707ZM21.5914 32.7517C22.1429 33.3698 23.091 33.4313 23.7091 32.8888L27.1074 29.9066L25.076 27.6978L21.7123 30.6499C21.0941 31.1923 21.04 32.1333 21.5914 32.7517ZM33.5789 26.8952C34.3445 26.5973 34.7157 25.7314 34.4081 24.9615C34.1004 24.191 33.2303 23.8081 32.4646 24.106L28.3387 25.7109L29.374 28.5308L33.5789 26.8952ZM28.2917 12.6426L27.0125 12L25.257 16.7468L26.5363 17.3893L28.2917 12.6426ZM20.7842 21.9292L20.4909 20.4306L14.1538 21.6577L14.4455 23.1567L20.7842 21.9292ZM22.7991 17.8551L20.1372 12.8178L18.8322 13.6322L21.4932 18.6691L22.7991 17.8551Z" fill="white"/>
</g>
</svg>
