<svg width="24" height="24" viewBox="0 0 24 24" fill="none" xmlns="http://www.w3.org/2000/svg">
<g id="vuesax/linear/setting-3">
<g id="setting-3">
<path id="Vector" d="M9 22H15C20 22 22 20 22 15V9C22 4 20 2 15 2H9C4 2 2 4 2 9V15C2 20 4 22 9 22Z" stroke="#314669" stroke-width="1.5" stroke-linecap="round" stroke-linejoin="round"/>
<path id="Vector_2" d="M15.5703 18.4996V14.5996" stroke="#314669" stroke-width="1.5" stroke-miterlimit="10" stroke-linecap="round" stroke-linejoin="round"/>
<path id="Vector_3" d="M15.5703 7.45V5.5" stroke="#314669" stroke-width="1.5" stroke-miterlimit="10" stroke-linecap="round" stroke-linejoin="round"/>
<path id="Vector_4" d="M15.5687 12.6502C17.0047 12.6502 18.1687 11.4861 18.1687 10.0502C18.1687 8.61426 17.0047 7.4502 15.5687 7.4502C14.1328 7.4502 12.9688 8.61426 12.9688 10.0502C12.9688 11.4861 14.1328 12.6502 15.5687 12.6502Z" stroke="#314669" stroke-width="1.5" stroke-miterlimit="10" stroke-linecap="round" stroke-linejoin="round"/>
<path id="Vector_5" d="M8.42969 18.4998V16.5498" stroke="#314669" stroke-width="1.5" stroke-miterlimit="10" stroke-linecap="round" stroke-linejoin="round"/>
<path id="Vector_6" d="M8.42969 9.4V5.5" stroke="#314669" stroke-width="1.5" stroke-miterlimit="10" stroke-linecap="round" stroke-linejoin="round"/>
<path id="Vector_7" d="M8.42813 16.5496C9.86407 16.5496 11.0281 15.3855 11.0281 13.9496C11.0281 12.5137 9.86407 11.3496 8.42813 11.3496C6.99218 11.3496 5.82812 12.5137 5.82812 13.9496C5.82812 15.3855 6.99218 16.5496 8.42813 16.5496Z" stroke="#314669" stroke-width="1.5" stroke-miterlimit="10" stroke-linecap="round" stroke-linejoin="round"/>
</g>
</g>
</svg>
