<svg width="16" height="16" viewBox="0 0 16 16" fill="none" xmlns="http://www.w3.org/2000/svg">
<g id="vuesax/linear/export">
  <g id="export">
    <path id="Vector (Stroke)" class="svg-fill" fill-rule="evenodd" clip-rule="evenodd" d="M14.4882 1.51266C14.6835 1.70792 14.6835 2.0245 14.4882 2.21976L9.02152 7.68643C8.82626 7.88169 8.50968 7.88169 8.31442 7.68643C8.11915 7.49117 8.11915 7.17459 8.31442 6.97932L13.7811 1.51266C13.9763 1.3174 14.2929 1.3174 14.4882 1.51266Z"/>
    <path id="Vector (Stroke)_2" class="svg-fill" fill-rule="evenodd" clip-rule="evenodd" d="M10.9648 1.33301C10.9648 1.05687 11.1887 0.833008 11.4648 0.833008H14.6648C14.941 0.833008 15.1648 1.05687 15.1648 1.33301V4.53301C15.1648 4.80915 14.941 5.03301 14.6648 5.03301C14.3887 5.03301 14.1648 4.80915 14.1648 4.53301V1.83301H11.4648C11.1887 1.83301 10.9648 1.60915 10.9648 1.33301Z"/>
    <path id="Vector (Stroke)_3" class="svg-fill" fill-rule="evenodd" clip-rule="evenodd" d="M2.06181 2.06279C2.95146 1.17314 4.28272 0.833008 5.9987 0.833008H7.33203C7.60817 0.833008 7.83203 1.05687 7.83203 1.33301C7.83203 1.60915 7.60817 1.83301 7.33203 1.83301H5.9987C4.38135 1.83301 3.37927 2.15954 2.76892 2.76989C2.15856 3.38025 1.83203 4.38232 1.83203 5.99967V9.99967C1.83203 11.617 2.15856 12.6191 2.76892 13.2295C3.37927 13.8398 4.38135 14.1663 5.9987 14.1663H9.9987C11.616 14.1663 12.6181 13.8398 13.2285 13.2295C13.8388 12.6191 14.1654 11.617 14.1654 9.99967V8.66634C14.1654 8.3902 14.3892 8.16634 14.6654 8.16634C14.9415 8.16634 15.1654 8.3902 15.1654 8.66634V9.99967C15.1654 11.7157 14.8252 13.0469 13.9356 13.9366C13.0459 14.8262 11.7147 15.1663 9.9987 15.1663H5.9987C4.28272 15.1663 2.95146 14.8262 2.06181 13.9366C1.17217 13.0469 0.832031 11.7157 0.832031 9.99967V5.99967C0.832031 4.28369 1.17217 2.95243 2.06181 2.06279Z"/>
  </g>
</g>
</svg>
