<svg width="34" height="34" viewBox="0 0 34 34" fill="none" xmlns="http://www.w3.org/2000/svg">
<g id="Frame" clip-path="url(#clip0_1306_31640)">
<g id="Group 427319087">
<path id="Vector" d="M0 11.2822H34V22.7186H0V11.2822Z" fill="#F95F5D"/>
<path id="Vector_2" d="M34 11.3333V2.17352C34 0.931507 33.0893 0 31.875 0H2.125C0.910714 0 -4.44685e-08 0.931507 0 2.17352V11.3333H34Z" fill="#55C7F7"/>
<path id="Vector_3" d="M0 22.7188V31.8369C0 33.0733 0.906667 34.0006 2.11556 34.0006H31.8844C33.0933 34.0006 34 33.0733 34 31.8369V22.7188H0Z" fill="#7ECF3B"/>
<path id="Vector_4" d="M13.6016 0H20.4016V34H13.6016V0Z" fill="#FDAF42"/>
<path id="Vector_5" d="M20.8759 14.445V19.5553H13.1215V14.445H20.8759ZM22.218 12.4668H11.7794C11.6303 12.4668 11.332 12.6316 11.332 12.9613V21.0389C11.332 21.2038 11.4812 21.5335 11.7794 21.5335H22.218C22.3671 21.5335 22.6654 21.3686 22.6654 21.0389V12.9613C22.5162 12.6316 22.3671 12.4668 22.218 12.4668Z" fill="white"/>
</g>
</g>
<defs>
<clipPath id="clip0_1306_31640">
<rect width="34" height="34" fill="white"/>
</clipPath>
</defs>
</svg>
