<svg width="34" height="34" viewBox="0 0 34 34" fill="none" xmlns="http://www.w3.org/2000/svg">
<g id="Frame" clip-path="url(#clip0_1306_31650)">
<path id="Vector" d="M1.7 0H32.3C32.7509 0 33.1833 0.179107 33.5021 0.497918C33.8209 0.81673 34 1.24913 34 1.7V32.3C34 32.7509 33.8209 33.1833 33.5021 33.5021C33.1833 33.8209 32.7509 34 32.3 34H1.7C1.24913 34 0.81673 33.8209 0.497918 33.5021C0.179107 33.1833 0 32.7509 0 32.3L0 1.7C0 1.24913 0.179107 0.81673 0.497918 0.497918C0.81673 0.179107 1.24913 0 1.7 0Z" fill="#9A9A9A"/>
<path id="&#239;&#188;&#159;" d="M14.8451 19.6973C14.4598 16.1387 18.1091 15.4133 18.1091 13.3507C18.1091 12.2853 17.4291 11.764 16.4544 11.764C15.5251 11.764 14.7998 12.1493 14.1198 12.9427L11.8984 10.9027C13.0998 9.42933 14.8904 8.5 16.9304 8.5C19.7638 8.5 21.9624 9.90533 21.9624 12.988C21.9624 16.3653 18.1771 16.6147 18.3811 19.6973H14.8451ZM13.9384 23.4827C13.9384 22.032 15.0491 21.012 16.6131 21.012C18.1771 21.012 19.2878 22.032 19.2878 23.4827C19.2878 24.9333 18.1771 25.9987 16.6131 25.9987C15.0491 25.9987 13.9384 24.9333 13.9384 23.4827Z" fill="white"/>
</g>
<defs>
<clipPath id="clip0_1306_31650">
<rect width="34" height="34" fill="white"/>
</clipPath>
</defs>
</svg>
