<svg width="34" height="34" viewBox="0 0 34 34" fill="none" xmlns="http://www.w3.org/2000/svg">
<g id="Frame" clip-path="url(#clip0_1306_31647)">
<path id="Vector" d="M1.7 0H32.3C32.7509 0 33.1833 0.179107 33.5021 0.497918C33.8209 0.81673 34 1.24913 34 1.7V32.3C34 32.7509 33.8209 33.1833 33.5021 33.5021C33.1833 33.8209 32.7509 34 32.3 34H1.7C1.24913 34 0.81673 33.8209 0.497918 33.5021C0.179107 33.1833 0 32.7509 0 32.3L0 1.7C0 1.24913 0.179107 0.81673 0.497918 0.497918C0.81673 0.179107 1.24913 0 1.7 0Z" fill="#00AE83"/>
<path id="Vector_2" d="M22.5461 24.6503L18.3947 17.8248L22.2656 11.3359H19.3297L16.9922 15.6369L14.6734 11.3359H11.7188L15.5897 17.8248L11.457 24.6503H14.4303L16.9922 20.0127L19.5728 24.6503H22.5461Z" fill="white"/>
</g>
<defs>
<clipPath id="clip0_1306_31647">
<rect width="34" height="34" fill="white"/>
</clipPath>
</defs>
</svg>
