<svg width="34" height="34" viewBox="0 0 34 34" fill="none" xmlns="http://www.w3.org/2000/svg">
<g id="icon_mp4">
<path id="Vector" d="M32.1128 9.35V30.2222C32.1128 32.3094 30.4223 34 28.3351 34H5.6684C3.58118 34 1.89062 32.3094 1.89062 30.2222V3.77778C1.89062 1.69056 3.58118 0 5.6684 0H22.7628L32.1128 9.35Z" fill="#0267FF"/>
<path id="Vector_2" d="M10.862 13.2227H20.7786C21.7231 13.2227 22.1953 13.6949 22.1953 14.6393V22.431C22.1953 23.3754 21.7231 23.8477 20.7786 23.8477H10.862C9.91753 23.8477 9.44531 23.3754 9.44531 22.431V14.6393C9.44531 13.6949 9.91753 13.2227 10.862 13.2227Z" fill="white" fill-opacity="0.95"/>
<path id="Vector_3" d="M24.5191 15.2019C24.6805 15.1083 24.8637 15.0589 25.0503 15.0586C25.2369 15.0583 25.4203 15.1073 25.5819 15.2004C25.7436 15.2936 25.8778 15.4278 25.9711 15.5894C26.0644 15.7509 26.1135 15.9343 26.1133 16.1209V21.252C26.1133 22.0699 25.2284 22.5809 24.5201 22.1719L22.7266 21.1368V16.2351L24.5191 15.2019Z" fill="white" fill-opacity="0.95"/>
<path id="Vector_4" d="M22.7617 5.57222V0L32.1117 9.35H26.5395C24.4523 9.35 22.7617 7.65944 22.7617 5.57222Z" fill="#0045AD"/>
</g>
</svg>
