<svg width="34" height="34" viewBox="0 0 34 34" fill="none" xmlns="http://www.w3.org/2000/svg">
<g id="Frame" clip-path="url(#clip0_1306_31637)">
<path id="Vector" d="M1.7 0H32.3C32.7509 0 33.1833 0.179107 33.5021 0.497918C33.8209 0.81673 34 1.24913 34 1.7V32.3C34 32.7509 33.8209 33.1833 33.5021 33.5021C33.1833 33.8209 32.7509 34 32.3 34H1.7C1.24913 34 0.81673 33.8209 0.497918 33.5021C0.179107 33.1833 0 32.7509 0 32.3L0 1.7C0 1.24913 0.179107 0.81673 0.497918 0.497918C0.81673 0.179107 1.24913 0 1.7 0Z" fill="#E64264"/>
<path id="Vector_2" d="M18.0166 8.5C18.0166 12.4074 21.3469 16.5988 25.5 17.9971L24.7894 21.0401C19.9172 20.3363 14.8809 22.4366 10.3326 25.5L8.5 22.9687C10.1881 21.6053 11.8065 19.2908 13.005 16.5878C14.2009 13.895 14.909 10.976 14.909 8.5H18.0166ZM16.3633 13.6C15.6378 15.9413 14.7133 18.2163 13.6 20.4C15.8032 19.5058 18.0778 18.8054 20.4 18.3779C18.8458 16.9739 17.488 15.3668 16.3633 13.6Z" fill="white"/>
</g>
<defs>
<clipPath id="clip0_1306_31637">
<rect width="34" height="34" fill="white"/>
</clipPath>
</defs>
</svg>
