<svg width="34" height="34" viewBox="0 0 34 34" fill="none" xmlns="http://www.w3.org/2000/svg">
<g id="Frame" clip-path="url(#clip0_1306_31653)">
<path id="Vector" d="M1.7 0H32.3C32.7509 0 33.1833 0.179107 33.5021 0.497918C33.8209 0.81673 34 1.24913 34 1.7V32.3C34 32.7509 33.8209 33.1833 33.5021 33.5021C33.1833 33.8209 32.7509 34 32.3 34H1.7C1.24913 34 0.81673 33.8209 0.497918 33.5021C0.179107 33.1833 0 32.7509 0 32.3L0 1.7C0 1.24913 0.179107 0.81673 0.497918 0.497918C0.81673 0.179107 1.24913 0 1.7 0Z" fill="#4876FF"/>
<path id="Vector_2" d="M25.1828 11.3359H22.4713L20.3956 19.7322L17.9646 11.3359H16.0198L13.5888 19.7322L11.5318 11.3359H8.82031L12.3733 24.6503H14.5425L16.9922 16.5719L19.4419 24.6503H21.6111L25.1828 11.3359Z" fill="white"/>
</g>
<defs>
<clipPath id="clip0_1306_31653">
<rect width="34" height="34" fill="white"/>
</clipPath>
</defs>
</svg>
