<svg width="34" height="34" viewBox="0 0 34 34" fill="none" xmlns="http://www.w3.org/2000/svg">
<g id="Frame" clip-path="url(#clip0_1306_31656)">
<path id="Vector" d="M1.7 0H32.3C32.7509 0 33.1833 0.179107 33.5021 0.497918C33.8209 0.81673 34 1.24913 34 1.7V32.3C34 32.7509 33.8209 33.1833 33.5021 33.5021C33.1833 33.8209 32.7509 34 32.3 34H1.7C1.24913 34 0.81673 33.8209 0.497918 33.5021C0.179107 33.1833 0 32.7509 0 32.3L0 1.7C0 1.24913 0.179107 0.81673 0.497918 0.497918C0.81673 0.179107 1.24913 0 1.7 0Z" fill="#E67D42"/>
<path id="Vector_2" d="M22.2354 15.4873C22.2354 13.2246 20.5898 11.3359 17.8409 11.3359H12.6797V24.6503H15.279V19.6387H17.8409C20.5898 19.6387 22.2354 17.75 22.2354 15.4873ZM19.6361 15.4873C19.6361 16.5719 18.8881 17.3012 17.71 17.3012H15.279V13.6547H17.71C18.8881 13.6547 19.6361 14.4027 19.6361 15.4873Z" fill="white"/>
</g>
<defs>
<clipPath id="clip0_1306_31656">
<rect width="34" height="34" fill="white"/>
</clipPath>
</defs>
</svg>
